<?xml version="1.0" encoding="utf-8"?>
<!-- Generator: Adobe Illustrator 19.2.1, SVG Export Plug-In . SVG Version: 6.00 Build 0)  -->
<svg version="1.1" id="layer" xmlns="http://www.w3.org/2000/svg" xmlns:xlink="http://www.w3.org/1999/xlink" x="0px" y="0px"
	 viewBox="0 0 652 652" style="enable-background:new 0 0 652 652;" xml:space="preserve">
<style type="text/css">
	.st0{fill-rule:evenodd;clip-rule:evenodd;fill:#008733;}
	.st1{fill-rule:evenodd;clip-rule:evenodd;fill:#004DA5;}
	.st2{fill:#004FA7;}
</style>
<g>
	<path class="st0" d="M146.4,78.8h39.5c24.2,0,80.2,13.6,139.7,15c78.7,1.5,127.9-14.7,132.3-15l46.9-2.9v35.7h-41
		c-12.4,0-102.8-15.3-149.4-12.4c-63.7,3.8-100.5,12.4-106.7,12.4h-61.3V78.8z M146.4,124.8h39.5c24.2,0,80.2,16.2,139.7,18
		c63.7,1.8,111.4-20.9,139.1-20.9h40.1v38.6h-64.8c-22.4,0-87.5-16.2-125.6-13.3c-53,4.1-69.8,10.3-86.6,10.3h-81.3V124.8z
		 M146.4,169.9H195c65.4,0,117.9,16.5,130.6,18c46.6,5.6,96.4-18,129.7-18h49.5v35.7h-64.8c-22.4,0-85.8-5-124.1-6.5
		c-53.9-1.8-71.6,6.5-88.1,6.5h-81.3V169.9z M146.4,216.2H195c65.4,0,98.4,11.2,111.4,12.7c24.5,3.2,54.8-12.7,102-12.7h96.4v34.5
		H400.4c-22.7,0-61.3-9.4-69.8-9.4c-9.1,0.3-16.8,4.4-25,6.2c-15.9,3.8-35.4,4.1-40.7,4.1H146.4V216.2z M146.4,260.8h108.5
		c65.4,0,56,3.2,69,5c24.5,2.9,37.4-6.2,84.6-6.2h96.4v34.8H390.1c-33.6,0-54.5-4.7-59.5-5c-12.7-0.3-23.9,7.1-56.9,7.1H146.4V260.8
		z"/>
	<path class="st1" d="M504.7,517.9h-39.5c-23.9,0-80.2-7.7-139.7-8.8c-78.4-1.8-127.9,8.6-132,8.8l-47.2,2.9v-32.7h41.3
		c12.4,0,102.6,15,149.4,12.1c63.4-4.1,119.1-12.1,125.2-12.1h42.4V517.9z M504.7,474.8h-39.5c-24.2,0-80.2-9.7-139.7-9.7
		c-63.7,0.3-111.4,9.7-139.1,9.7h-40.1v-32.7H182c5,0,28.6,13,57.5,15.3c30.1,2.9,65.4,2.4,89,1.5c53-1.8,134.4-13.9,151.2-13.9h25
		V474.8z M504.7,429.7h-41.6c-28.9,0-59.5-18.6-85.2-15.6c-46.6,5-148.5,18.6-182.1,18.6h-49.5V397h56.3c22.7,0,44.8,12.4,83.1,10.9
		c53.9-2.4,121.4-10.9,137.9-10.9h81V429.7z M504.7,383.7h-48.3c-34.2,0-52.2-5.3-69-7.4c-21.8-2.9-37.7-2.7-42.4-2.7
		c-41.9-0.9-91.7,13-125.3,13h-73.4v-37.7H251c22.4,0,60.4,8.3,69,8.3c9.1-0.3,17.1-1.8,25.9-2.1c15.6-0.6,35.1-7.1,40.7-7.1h118.2
		V383.7z M504.7,337.7H396.6c-18.6,0-30.9-6.2-39.8-6.8c-22.4-0.9-25.6,0.3-32.7,0.9c-26.5,3.2-35.4,6.8-81,6.8h-96.7V305h114.9
		c33.6,0,54.2,6.5,59.5,6.5c12.7,0.6,23.6-6.8,56.9-6.8h127V337.7z"/>
	<path class="st2" d="M158.4,561.7v8.7c0,1.4,0.1,2.3,0.2,2.7c0.2,0.4,0.5,0.7,0.9,0.9c0.5,0.3,1.1,0.4,1.9,0.4h0.9v0.8h-14.7v-0.8
		h0.9c0.8,0,1.5-0.1,2-0.4c0.4-0.2,0.6-0.5,0.8-1c0.2-0.3,0.2-1.2,0.2-2.6v-18.5c0-1.4-0.1-2.3-0.2-2.7c-0.2-0.4-0.5-0.7-0.9-0.9
		c-0.5-0.3-1.1-0.4-1.9-0.4h-0.9v-0.8h14.7v0.8h-0.9c-0.8,0-1.5,0.1-2,0.4c-0.4,0.2-0.6,0.5-0.9,1c-0.1,0.3-0.2,1.2-0.2,2.6v7.9h9.9
		v-7.9c0-1.4-0.1-2.3-0.2-2.7c-0.2-0.4-0.5-0.7-0.9-0.9c-0.5-0.3-1.1-0.4-1.9-0.4h-0.9v-0.8H179v0.8h-0.9c-0.8,0-1.5,0.1-2,0.4
		c-0.4,0.2-0.6,0.5-0.8,1c-0.2,0.3-0.2,1.2-0.2,2.6v18.5c0,1.4,0.1,2.3,0.2,2.7c0.1,0.4,0.5,0.7,0.9,0.9c0.5,0.3,1.1,0.4,1.9,0.4
		h0.9v0.8h-14.7v-0.8h0.9c0.8,0,1.5-0.1,2-0.4c0.4-0.2,0.6-0.5,0.8-1c0.2-0.3,0.2-1.2,0.2-2.6v-8.7H158.4z"/>
	<path class="st2" d="M191,562.4v7.9c0,1.5,0.1,2.5,0.3,2.9c0.2,0.4,0.5,0.7,1,0.9c0.5,0.2,1.3,0.4,2.6,0.4v0.8h-14.4v-0.8
		c1.3,0,2.2-0.1,2.6-0.4c0.5-0.2,0.8-0.6,1-0.9c0.2-0.4,0.3-1.3,0.3-2.9v-18.2c0-1.5-0.1-2.5-0.3-2.9c-0.2-0.4-0.5-0.7-1-0.9
		c-0.5-0.2-1.3-0.4-2.6-0.4v-0.8h13c3.4,0,5.9,0.2,7.4,0.7c1.6,0.5,2.9,1.3,3.8,2.6c1,1.3,1.5,2.7,1.5,4.4c0,2.1-0.7,3.8-2.2,5.1
		c-1,0.9-2.3,1.5-4,1.9l6.7,9.5c0.9,1.2,1.5,2,1.9,2.3c0.6,0.4,1.2,0.7,2,0.7v0.8h-8.8l-9-12.8H191z M191,548.7v12.3h1.2
		c1.9,0,3.4-0.2,4.3-0.5c1-0.4,1.7-1,2.2-1.9c0.5-0.9,0.8-2.1,0.8-3.6c0-2.1-0.5-3.7-1.5-4.7c-1-1-2.6-1.5-4.8-1.5H191z"/>
	<path class="st2" d="M239.1,547.1v0.8c-1,0.2-1.9,0.7-2.7,1.6c-0.6,0.7-1.4,2.3-2.6,4.9l-9.7,21.4h-0.7l-9.6-22.3
		c-1.2-2.7-1.9-4.3-2.3-4.7c-0.4-0.5-1.1-0.8-2.2-0.9v-0.8h13.4v0.8h-0.5c-1.2,0-2,0.2-2.5,0.5c-0.3,0.2-0.5,0.5-0.5,0.9
		c0,0.2,0.1,0.5,0.2,0.9c0.1,0.3,0.5,1.2,1.1,2.7l6,14l5.5-12.4c0.7-1.5,1.1-2.5,1.2-3c0.2-0.5,0.2-0.9,0.2-1.3
		c0-0.4-0.1-0.8-0.3-1.1c-0.2-0.3-0.5-0.6-1-0.7c-0.6-0.2-1.4-0.4-2.4-0.4v-0.8H239.1z"/>
	<path class="st2" d="M251.7,567.2h-9.9l-1.2,2.7c-0.4,0.9-0.6,1.7-0.6,2.3c0,0.8,0.3,1.4,1,1.7c0.4,0.2,1.3,0.4,2.8,0.5v0.8h-9.3
		v-0.8c1-0.2,1.8-0.6,2.5-1.3c0.6-0.7,1.4-2.1,2.4-4.2l10-22.4h0.4l10.1,23c1,2.2,1.8,3.5,2.4,4.1c0.5,0.4,1.1,0.7,2,0.7v0.8h-13.6
		v-0.8h0.6c1.1,0,1.9-0.2,2.3-0.5c0.3-0.2,0.5-0.5,0.5-0.9c0-0.2,0-0.5-0.1-0.8c0-0.1-0.2-0.6-0.6-1.6L251.7,567.2z M251,565.7
		l-4.2-9.7l-4.3,9.7H251z"/>
	<path class="st2" d="M288.2,547.1v7.6h-0.7c-0.4-1.8-0.9-3-1.5-3.8c-0.5-0.8-1.3-1.4-2.2-1.8c-0.5-0.2-1.4-0.4-2.7-0.4h-2.1v21.6
		c0,1.4,0.1,2.3,0.2,2.7c0.2,0.4,0.5,0.7,0.9,0.9c0.5,0.3,1.1,0.4,1.9,0.4h0.9v0.8h-14.7v-0.8h0.9c0.8,0,1.5-0.1,2-0.4
		c0.4-0.2,0.6-0.5,0.8-1c0.1-0.3,0.2-1.2,0.2-2.6v-21.6h-2c-1.9,0-3.3,0.4-4.1,1.2c-1.2,1.1-2,2.7-2.3,4.8H263v-7.6H288.2z"/>
	<path class="st2" d="M309.7,546.5l0.2,9.4H309c-0.4-2.3-1.4-4.2-2.9-5.7c-1.6-1.4-3.3-2.1-5.1-2.1c-1.4,0-2.5,0.4-3.3,1.1
		c-0.8,0.8-1.2,1.6-1.2,2.6c0,0.6,0.1,1.2,0.4,1.7c0.4,0.6,1,1.3,1.9,1.9c0.6,0.5,2.1,1.3,4.5,2.4c3.3,1.6,5.5,3.1,6.6,4.6
		c1.1,1.4,1.7,3.1,1.7,4.9c0,2.3-0.9,4.4-2.7,6.1c-1.8,1.7-4.1,2.5-7,2.5c-0.9,0-1.7-0.1-2.5-0.3c-0.8-0.2-1.8-0.5-3-1
		c-0.7-0.3-1.2-0.4-1.6-0.4c-0.4,0-0.7,0.1-1.1,0.4c-0.4,0.3-0.7,0.7-1,1.3h-0.8v-10.6h0.8c0.6,3,1.8,5.3,3.5,6.8
		c1.7,1.6,3.6,2.3,5.6,2.3c1.5,0,2.8-0.4,3.7-1.3c0.9-0.8,1.4-1.8,1.4-2.9c0-0.7-0.2-1.3-0.5-1.9c-0.4-0.6-0.9-1.2-1.6-1.8
		c-0.7-0.6-2-1.3-3.8-2.2c-2.6-1.3-4.4-2.3-5.5-3.2c-1.1-0.9-2-1.9-2.6-3c-0.6-1.1-0.9-2.3-0.9-3.6c0-2.2,0.8-4.1,2.5-5.7
		c1.6-1.6,3.7-2.4,6.2-2.4c0.9,0,1.8,0.1,2.6,0.3c0.6,0.2,1.4,0.5,2.4,0.9c0.9,0.4,1.6,0.7,2,0.7c0.4,0,0.6-0.1,0.8-0.3
		c0.2-0.2,0.4-0.7,0.6-1.6H309.7z"/>
	<path class="st2" d="M331,557.9l9.9,12.4c1.4,1.7,2.6,2.9,3.6,3.5c0.7,0.4,1.5,0.7,2.3,0.7v0.8h-14.6v-0.8c0.9-0.1,1.5-0.2,1.8-0.4
		c0.3-0.2,0.4-0.5,0.4-0.8c0-0.6-0.6-1.7-1.9-3.3l-6.4-8.1l-1,0.9v7.7c0,1.5,0.1,2.4,0.2,2.7c0.2,0.4,0.5,0.7,1,0.9
		c0.5,0.3,1.2,0.4,2.3,0.4v0.8h-14.2v-0.8h0.9c0.8,0,1.5-0.1,2-0.4c0.4-0.2,0.6-0.5,0.8-1c0.2-0.3,0.2-1.2,0.2-2.6v-18.5
		c0-1.4-0.1-2.3-0.2-2.7c-0.1-0.4-0.5-0.7-0.9-0.9c-0.5-0.3-1.1-0.4-1.9-0.4h-0.9v-0.8h14v0.8c-1,0-1.7,0.1-2.2,0.4
		c-0.4,0.2-0.6,0.5-0.8,1c-0.2,0.3-0.2,1.2-0.2,2.6v8.7l10.4-8.4c1.4-1.2,2.2-2.1,2.2-2.8c0-0.5-0.3-0.9-0.9-1.2
		c-0.3-0.2-1.1-0.2-2.3-0.3v-0.8h10.9v0.8c-1,0.1-1.8,0.2-2.3,0.5c-0.6,0.3-1.8,1.2-3.9,2.9L331,557.9z"/>
	<path class="st2" d="M357.8,548.8v11.4h0.6c1.8,0,3.1-0.6,3.9-1.7c0.8-1.1,1.3-2.8,1.5-4.9h0.8v14.7h-0.8c-0.2-1.6-0.5-2.9-1-3.9
		c-0.5-1-1.1-1.7-1.9-2.1c-0.7-0.4-1.7-0.5-3.1-0.5v7.9c0,1.5,0.1,2.5,0.2,2.8c0.1,0.3,0.4,0.6,0.7,0.8c0.4,0.2,0.9,0.3,1.7,0.3h1.7
		c2.6,0,4.7-0.6,6.3-1.8c1.6-1.2,2.7-3.1,3.4-5.5h0.8l-1.3,8.9h-24.3v-0.8h0.9c0.8,0,1.5-0.1,2-0.4c0.4-0.2,0.6-0.5,0.8-1
		c0.2-0.3,0.2-1.2,0.2-2.6v-18.5c0-1.3,0-2.1-0.1-2.3c-0.1-0.5-0.4-0.9-0.8-1.1c-0.5-0.4-1.2-0.6-2.2-0.6h-0.9v-0.8h23.5v8.3h-0.8
		c-0.4-2-1-3.5-1.7-4.4c-0.7-0.9-1.8-1.5-3.1-1.9c-0.8-0.2-2.2-0.4-4.3-0.4H357.8z"/>
	<path class="st2" d="M414.5,547.1v0.8c-1,0.2-1.9,0.7-2.7,1.6c-0.6,0.7-1.4,2.3-2.6,4.9l-9.7,21.4h-0.7l-9.6-22.3
		c-1.2-2.7-1.9-4.3-2.3-4.7c-0.4-0.5-1.1-0.8-2.2-0.9v-0.8h13.4v0.8h-0.5c-1.2,0-2,0.2-2.5,0.5c-0.3,0.2-0.5,0.5-0.5,0.9
		c0,0.2,0.1,0.5,0.2,0.9c0.1,0.3,0.5,1.2,1.1,2.7l6,14l5.5-12.4c0.7-1.5,1.1-2.5,1.2-3c0.2-0.5,0.2-0.9,0.2-1.3
		c0-0.4-0.1-0.8-0.3-1.1c-0.2-0.3-0.5-0.6-1-0.7c-0.6-0.2-1.4-0.4-2.4-0.4v-0.8H414.5z"/>
	<path class="st2" d="M430.5,546.8c4.5-0.2,8.1,1.1,10.9,3.9c2.8,2.8,4.2,6.2,4.2,10.4c0,3.6-1,6.7-3.1,9.4
		c-2.8,3.6-6.7,5.4-11.7,5.4c-5,0-8.9-1.7-11.7-5.1c-2.2-2.7-3.3-5.9-3.3-9.6c0-4.2,1.4-7.6,4.3-10.4
		C422.9,547.9,426.4,546.6,430.5,546.8 M430.7,548.1c-2.6,0-4.5,1.3-5.9,3.9c-1.1,2.1-1.6,5.2-1.6,9.3c0,4.8,0.8,8.3,2.5,10.6
		c1.2,1.6,2.8,2.4,4.9,2.4c1.4,0,2.6-0.3,3.6-1c1.2-0.9,2.2-2.3,2.8-4.2c0.7-1.9,1-4.5,1-7.6c0-3.7-0.3-6.5-1-8.3
		c-0.7-1.8-1.6-3.1-2.6-3.9C433.4,548.5,432.1,548.1,430.7,548.1"/>
	<path class="st2" d="M447.6,575.2v-0.8h0.9c0.8,0,1.4-0.1,1.9-0.4c0.4-0.3,0.8-0.6,1-1c0.1-0.3,0.2-1.2,0.2-2.6v-18.5
		c0-1.4-0.1-2.3-0.2-2.7c-0.1-0.4-0.5-0.7-0.9-0.9c-0.5-0.3-1.1-0.4-1.9-0.4h-0.9v-0.8h12.6c3.4,0,6,0.5,8.1,1.4
		c2.5,1.1,4.4,2.8,5.7,5.1c1.3,2.3,1.9,4.8,1.9,7.7c0,2-0.3,3.8-1,5.5c-0.6,1.7-1.5,3-2.5,4.1c-1,1.1-2.2,2-3.5,2.6
		c-1.3,0.7-2.9,1.2-4.8,1.5c-0.8,0.2-2.2,0.2-4,0.2H447.6z M458.3,548.7v21.9c0,1.2,0.1,1.9,0.2,2.1c0.1,0.3,0.3,0.5,0.6,0.6
		c0.4,0.2,0.9,0.3,1.6,0.3c2.3,0,4.1-0.8,5.3-2.4c1.7-2.1,2.5-5.4,2.5-9.9c0-3.6-0.6-6.5-1.7-8.6c-0.9-1.7-2.1-2.8-3.5-3.4
		C462.3,548.9,460.7,548.7,458.3,548.7"/>
	<path class="st2" d="M489.2,548.8v11.4h0.6c1.8,0,3.1-0.6,3.9-1.7c0.8-1.1,1.3-2.8,1.5-4.9h0.8v14.7h-0.8c-0.2-1.6-0.5-2.9-1-3.9
		c-0.5-1-1.2-1.7-1.9-2.1s-1.7-0.5-3.1-0.5v7.9c0,1.5,0.1,2.5,0.2,2.8c0.1,0.3,0.4,0.6,0.7,0.8c0.4,0.2,0.9,0.3,1.7,0.3h1.7
		c2.6,0,4.7-0.6,6.3-1.8c1.6-1.2,2.7-3.1,3.4-5.5h0.8l-1.3,8.9h-24.3v-0.8h0.9c0.8,0,1.5-0.1,2-0.4c0.4-0.2,0.6-0.5,0.8-1
		c0.2-0.3,0.2-1.2,0.2-2.6v-18.5c0-1.3,0-2.1-0.1-2.3c-0.1-0.5-0.4-0.9-0.8-1.1c-0.5-0.4-1.2-0.6-2.2-0.6h-0.9v-0.8H502v8.3h-0.8
		c-0.4-2-1-3.5-1.7-4.4c-0.7-0.9-1.8-1.5-3.1-1.9c-0.8-0.2-2.2-0.4-4.3-0.4H489.2z"/>
</g>
</svg>
