<svg xmlns="http://www.w3.org/2000/svg" xml:space="preserve" width="1200px" height="292px" style="shape-rendering:geometricPrecision; text-rendering:geometricPrecision; image-rendering:optimizeQuality; fill-rule:evenodd; clip-rule:evenodd" viewBox="0 0 1199 292" xmlns:xlink="http://www.w3.org/1999/xlink">
<style type="text/css">
.fil2 {fill:#0292CE}
.fil0 {fill:#034DA2}
.fil1 {fill:#EC1E22}
</style>
<path class="fil0" d="M453 60l0 158c0,55 -5,53 18,53 11,0 18,2 20,-6l0 -93 101 0c0,32 -1,68 1,98 7,2 17,1 25,1 13,0 12,-1 12,-14l0 -195c0,-21 1,-20 -19,-20 -23,0 -20,-4 -20,29l0 66 -101 0 0 -84c0,-13 0,-11 -29,-11 -12,0 -9,6 -9,17z"/>
<path class="fil0" d="M666 66c0,15 4,11 39,11l78 0c-2,9 -111,162 -115,173 -5,14 5,21 18,21l137 0c10,0 16,3 17,-8 2,-33 3,-27 -46,-26l-68 0c2,-6 26,-41 31,-49 11,-17 22,-32 33,-49 11,-16 22,-33 33,-49 38,-57 4,-47 -64,-47l-85 0c-10,1 -7,4 -7,23z"/>
<path class="fil1" d="M34 49c18,-6 26,21 9,26 -18,6 -28,-19 -9,-26zm333 91l38 0c0,-18 0,-35 0,-53 0,-17 4,-37 -11,-42 -9,-4 -317,0 -321,-1 -10,-10 -21,-24 -44,-19 -38,9 -39,64 -2,75 30,8 44,-18 46,-18l294 0 0 59z"/>
<path class="fil0" d="M909 145l0 -67c35,0 76,-7 75,33 -1,41 -40,34 -75,34zm-37 125c7,2 28,2 35,0 4,-11 0,-73 2,-91 26,-4 93,12 110,-46 13,-43 -8,-87 -63,-90 -10,-1 -72,-1 -78,1 -11,4 -8,19 -8,31 0,34 -2,186 1,195z"/>
<path class="fil0" d="M1085 78c35,0 76,-8 75,33 -1,41 -40,34 -75,34l0 -67zm-2 192c4,-11 1,-74 2,-91l40 -1c45,0 75,-27 74,-72 -2,-73 -76,-64 -133,-64 -24,0 -19,13 -19,52l0 141c0,8 -3,29 2,34 3,3 29,2 35,0z"/>
<path class="fil2" d="M157 146c18,-6 26,22 8,27 -17,5 -27,-21 -8,-27zm209 88c4,-5 0,-45 2,-56 9,1 28,1 37,-1l0 -37 -38 0 -172 0c-30,-40 -72,-13 -73,18 -1,31 42,60 73,20l172 0 0 56z"/>
<path class="fil0" d="M296 261c-10,15 -35,2 -24,-15 9,-15 35,-1 24,15zm70 -27l-48 0c-21,-35 -72,-20 -73,19 0,29 30,48 56,35 11,-5 10,-8 17,-16 14,0 29,0 44,0 54,0 42,0 43,-94 -9,2 -27,1 -37,1 -2,11 2,50 -2,56z"/>
<path class="fil0" d="M787 0l-23 0c-3,8 -6,15 -16,14 -13,-1 -10,-12 -17,-14l-21 0c-3,20 18,38 37,39 20,0 42,-18 39,-39z"/>
</svg>