<?xml version="1.0" encoding="UTF-8" standalone="no"?>
<svg
   xmlns:svg="http://www.w3.org/2000/svg"
   xmlns="http://www.w3.org/2000/svg"
   version="1.1"
   width="332.9375"
   height="497.54279"
   id="svg3977">
  <defs
     id="defs3979" />
  <g
     transform="translate(-284.95982,-249.30507)"
     id="layer1">
    <path
       d="m 509.11602,332.09787 c -81.6936,1.908 -157.5576,28.69229 -220.25,73.03125 l 0,80.75 c 58.2594,-54.39094 135.4538,-88.42375 220.25,-90.84375 l 0,-62.9375 z m 0,71.4375 c -86.2491,2.5469 -164.1436,39.85053 -220.25,98.25 l 0,101.5625 c 42.1115,-80.3414 124.7542,-136.12533 220.25,-139.6875 l 0,-60.125 z"
       id="path858"
       style="fill:#999999;fill-opacity:1;fill-rule:nonzero;stroke:none" />
    <path
       d="m 523.17862,250.31662 0,353.03125 93.7187,0 0,-353.03125 -93.7187,0 z m -140.5938,269.4375 c -30.0772,14.24868 -64.19,56.75055 -78.5,83.59375 l 78.5,0 0,-83.59375 z"
       id="path860"
       style="fill:#696a6c;fill-opacity:1;fill-rule:nonzero;stroke:none" />
    <path
       d="m 288.87357,250.30507 93.72363,0 0,94.14809 -93.72363,0 0,-94.14809 z"
       id="path864"
       style="fill:#ef3e33;fill-opacity:1;fill-rule:nonzero;stroke:none" />
    <path
       d="m 289.24102,650.56662 0,36.90625 12.875,0 0,-12.875 8.1563,0 0,12.875 12.9375,0 0,-36.90625 -12.9375,0 0,12.40625 -8.1563,0 0,-12.40625 -12.875,0 z m 178.5313,56.15625 c -11.0804,0 -19.625,8.83901 -19.625,19.90625 0,10.81341 8.2971,19.21875 19.0625,19.21875 2.4725,0 7.5969,-0.45034 9.75,-1.53125 l 0.4375,-14.1875 c -2.2144,2.16181 -4.741,3.5625 -7.8437,3.5625 -4.1179,0 -7.6876,-3.23955 -7.6876,-7.375 0,-4.13106 3.3853,-7.4375 7.4376,-7.4375 3.1026,0 5.8793,1.7776 8.0937,3.8125 l -0.4375,-14.375 c -2.9145,-1.01964 -6.0805,-1.59375 -9.1875,-1.59375 z m -169.0937,1.15625 -12.7188,36.90625 14.125,0 1.0625,-4.65625 5.0625,0 5.0312,0 1.1876,4.65625 14.125,0 -13.0938,-36.90625 -7.25,0 -7.5312,0 z m 7.2812,12.28125 0.25,0 0.2812,0 c 0.2539,1.52728 0.4287,3.16022 0.875,4.6875 l 1.5313,6.5625 -2.6875,0 -2.6562,0 2.4062,-11.25 z"
       id="path868"
       style="fill:#696a6c;fill-opacity:1;fill-rule:nonzero;stroke:none" />
    <path
       d="m 518.92862,649.16037 c -8.1703,0 -16.2813,4.96644 -16.2813,13.9375 0,5.91654 4.5224,9.01475 9.8437,9.96875 l 2.7188,0.53125 c 1.2648,0.25383 3.0312,0.3783 3.0312,2.09375 0,1.71981 -2.1696,2.21875 -3.5,2.21875 -3.1683,0 -6.0662,-1.52951 -8.4687,-3.4375 l -0.6875,-0.5 -4.1875,10.625 c 4.1792,2.16619 9.6881,3.4375 14.375,3.4375 8.1702,0 16.3437,-4.46643 16.3437,-13.4375 0,-6.42416 -4.2022,-9.53905 -10.0312,-10.8125 l -3.0312,-0.6875 c -1.0766,-0.25381 -2.7813,-0.44776 -2.7813,-1.84375 0,-1.52728 1.7654,-2.03125 2.9687,-2.03125 2.9146,0 5.5963,1.25521 7.9376,2.84375 l 3.6562,-9.59375 c -3.6715,-2.29309 -7.6001,-3.3125 -11.9062,-3.3125 z m -181.9376,1.40625 0,36.90625 13.0626,0 0,-11.84375 0.25,0 2.4062,4.8125 3.4062,7.03125 15.4063,0 -8,-12.03125 c -0.6957,-1.0809 -1.5186,-1.64862 -2.2187,-2.15625 l 0,-0.34375 c 4.9406,-1.65417 7.0937,-3.99667 7.0937,-9.59375 0,-9.28615 -7.0185,-12.78125 -15.25,-12.78125 l -0.4375,0 -15.7188,0 z m 94.875,0 -12.8124,36.90625 14.125,0 1.0937,-4.59375 5.0625,0 5,0 1.2812,4.59375 14.0313,0 -13.0313,-36.90625 -7.2812,0 -7.4688,0 z m 31.9688,0 0,11.9375 7.3438,-0.3125 0,25.28125 13.375,0 0,-25.28125 7.3437,0.3125 0,-11.9375 -28.0625,0 z m 80.4375,0 0,36.90625 12.9687,0 0,-15.46875 c 0.3195,1.52727 1.4585,2.84964 2.2813,4.25 l 6.3437,11.21875 15.4376,0 -12.7188,-18.96875 11.5312,-17.9375 -14.5624,0 -6.4688,11.8125 c -0.6959,1.33909 -1.5242,2.69462 -1.8438,4.15625 l -0.25,0 0.25,-15.96875 -12.9687,0 z m 47.5625,0 0,36.90625 25.0625,0 0,-10.125 -11.6563,0 0,-3.625 10.25,0 0,-9.5625 -10.25,0 0,-3.5625 11.2813,0 0,-10.03125 -24.6875,0 z m -215.125,0.5 14.25,36.90625 11.25,0 14.25,-36.90625 -13.9062,0 -4.875,16.75 c -0.5733,1.84235 -0.9688,3.62325 -0.9688,5.53125 l -0.3125,0 c 0,-1.908 -0.3717,-3.6889 -0.875,-5.53125 l -4.875,-16.75 -13.9375,0 z m -26.6562,9.53125 1,0 c 0.5689,0 1.153,0.0637 1.6562,0.125 1.5229,0.19255 2.6562,0.96195 2.6562,3.0625 0,2.0349 -1.1333,2.74619 -2.6562,3 -0.5689,0.0656 -1.1499,0.125 -1.7188,0.125 l -0.9374,0 0,-6.3125 z m 89.0312,2.25 0.25,0 0.25,0 c 0.2538,1.58854 0.5256,3.16146 0.9062,4.75 l 1.5,6.5 -2.6562,0 -2.6562,0 2.4062,-11.25 z m 98.8438,43.5625 c -8.1703,0 -16.2813,5.0333 -16.2813,14 0,5.85526 4.4911,9.04162 9.8125,10 l 2.75,0.5 c 1.2691,0.25381 3.0312,0.37394 3.0312,2.09375 0,1.71545 -2.1083,2.21875 -3.5,2.21875 -3.1026,0 -6.0618,-1.52513 -8.4687,-3.4375 l -0.6875,-0.5625 -4.1875,10.6875 c 4.2448,2.16181 9.6894,3.4375 14.4375,3.4375 8.1045,0 16.2812,-4.46644 16.2812,-13.4375 0,-6.42416 -4.2053,-9.53905 -9.9687,-10.8125 l -3.0937,-0.6875 c -1.0766,-0.25383 -2.7188,-0.44339 -2.7188,-1.84375 0,-1.59291 1.7027,-2.03125 2.9062,-2.03125 2.9145,0 5.5963,1.25084 7.9376,2.84375 l 3.6562,-9.65625 c -3.6716,-2.22307 -7.6001,-3.3125 -11.9062,-3.3125 z m -115.5626,0.84375 c -11.1459,0 -20.25,7.54576 -20.25,19.125 0,11.83306 9.0428,18.96875 20.25,18.96875 11.2073,0 20.3126,-7.13569 20.3126,-18.96875 0,-11.57924 -9.1666,-19.125 -20.3126,-19.125 z m -93.0937,0.625 0,21.8125 c 0,10.75215 6.7735,15.65625 17.0313,15.65625 10.2576,0 16.9687,-4.9041 16.9687,-15.65625 l 0,-21.8125 -13.2813,0 0,20.53125 c 0,2.862 -0.1428,5.4375 -3.6874,5.4375 -3.5448,0 -3.6563,-2.5755 -3.6563,-5.4375 l 0,-20.53125 -13.375,0 z m 40.9687,0 0,11.96875 7.3438,-0.34375 0,25.28125 13.3125,0 0,-25.28125 7.4063,0.34375 0,-11.96875 -28.0626,0 z m 116.4688,0 0,36.90625 25.0625,0 0,-10.125 -11.6563,0 0,-3.625 10.2813,0 0,-9.59375 -10.2813,0 0,-3.53125 11.2813,0 0,-10.03125 -24.6875,0 z m 69.6562,0 0,11.96875 7.4063,-0.34375 0,25.28125 13.2813,0 0,-25.28125 7.3437,0.34375 0,-11.96875 -28.0313,0 z m 35.4688,0 0,36.90625 25.0625,0 0,-10.125 -11.6563,0 0,-3.625 10.25,0 0,-9.59375 -10.25,0 0,-3.53125 11.2813,0 0,-10.03125 -24.6875,0 z m -169.4688,11.5 c 4.2405,0 6.9063,3.30587 6.9063,7.1875 0,4.19671 -2.854,7.125 -6.9063,7.125 -4.0523,0 -6.8437,-2.92829 -6.8437,-7.125 0,-3.88163 2.5989,-7.1875 6.8437,-7.1875 z"
       id="path874"
       style="fill:#999999;fill-opacity:1;fill-rule:evenodd;stroke:none" />
  </g>
</svg>
